<svg width="20" height="17" viewBox="0 0 20 17" fill="none" xmlns="http://www.w3.org/2000/svg">
<path d="M9.29447 16.1159C8.89814 16.1169 8.50554 16.039 8.1394 15.8868C7.77326 15.7345 7.44086 15.5109 7.16143 15.2289L0 8.04356L7.16143 0.858188C8.30087 -0.286063 10.2881 -0.286063 11.4275 0.858188C11.9967 1.42729 12.3115 2.18709 12.3115 2.99634C12.3115 3.74909 12.04 4.46046 11.5432 5.01644H16.4066C18.07 5.01644 19.4237 6.37461 19.4237 8.04356C19.4237 9.71251 18.07 11.0707 16.4066 11.0707H11.5432C12.039 11.6246 12.3115 12.334 12.3115 13.0867C12.3129 13.4849 12.2355 13.8794 12.0838 14.2473C11.932 14.6152 11.709 14.9492 11.4275 15.2299C11.148 15.5118 10.8156 15.7352 10.4494 15.8872C10.0833 16.0393 9.69074 16.117 9.29447 16.1159ZM2.84406 8.04356L8.58346 13.8021C8.77491 13.9858 9.02959 14.0883 9.29447 14.0883C9.55936 14.0883 9.81404 13.9858 10.0055 13.8021C10.1956 13.6114 10.3002 13.3572 10.3002 13.0877C10.3002 12.8183 10.1956 12.5661 10.0075 12.3764L6.69379 9.0526H16.4066C16.6656 9.04098 16.9101 8.92959 17.0892 8.74163C17.2683 8.55367 17.3683 8.30363 17.3683 8.04356C17.3683 7.78349 17.2683 7.53345 17.0892 7.34549C16.9101 7.15753 16.6656 7.04614 16.4066 7.03452H6.69379L10.0055 3.71175C10.0992 3.61841 10.1737 3.50739 10.2245 3.38508C10.2753 3.26277 10.3015 3.13159 10.3016 2.99907C10.3017 2.86656 10.2757 2.73534 10.225 2.61296C10.1744 2.49057 10.1001 2.37945 10.0065 2.28598C9.81513 2.10187 9.56031 1.99899 9.29518 1.99881C9.03005 1.99862 8.77509 2.10113 8.58346 2.28497L2.84406 8.04356Z" fill="#F8F8F8"/>
</svg>
