<svg width="20" height="17" viewBox="0 0 20 17" fill="none" xmlns="http://www.w3.org/2000/svg">
<path d="M10.1294 16.1159C10.5257 16.1169 10.9183 16.039 11.2844 15.8868C11.6506 15.7345 11.983 15.5109 12.2624 15.2289L19.4238 8.04356L12.2624 0.858188C11.123 -0.286063 9.13574 -0.286063 7.99631 0.858188C7.4271 1.42729 7.11232 2.18709 7.11232 2.99634C7.11232 3.74909 7.38385 4.46046 7.88066 5.01644H3.0172C1.35381 5.01644 0.000167847 6.37461 0.000167847 8.04356C0.000167847 9.71251 1.35381 11.0707 3.0172 11.0707H7.88066C7.38486 11.6246 7.11232 12.334 7.11232 13.0867C7.1109 13.4849 7.18831 13.8794 7.34006 14.2473C7.49181 14.6152 7.71488 14.9492 7.99631 15.2299C8.27582 15.5118 8.60826 15.7352 8.9744 15.8872C9.34053 16.0393 9.73309 16.117 10.1294 16.1159ZM16.5798 8.04356L10.8404 13.8021C10.6489 13.9858 10.3942 14.0883 10.1294 14.0883C9.86447 14.0883 9.60979 13.9858 9.41834 13.8021C9.22827 13.6114 9.12368 13.3572 9.12368 13.0877C9.12368 12.8183 9.22827 12.5661 9.41633 12.3764L12.73 9.0526H3.0172C2.75826 9.04098 2.51376 8.92959 2.33462 8.74163C2.15548 8.55367 2.0555 8.30363 2.0555 8.04356C2.0555 7.78349 2.15548 7.53345 2.33462 7.34549C2.51376 7.15753 2.75826 7.04614 3.0172 7.03452H12.73L9.41834 3.71175C9.32459 3.61841 9.25016 3.50739 9.19934 3.38508C9.14852 3.26277 9.12231 3.13159 9.12222 2.99907C9.12212 2.86656 9.14815 2.73534 9.1988 2.61296C9.24945 2.49057 9.32372 2.37945 9.41733 2.28598C9.6087 2.10187 9.86352 1.99899 10.1286 1.99881C10.3938 1.99862 10.6487 2.10113 10.8404 2.28497L16.5798 8.04356Z" fill="#F8F8F8"/>
</svg>
